<svg xmlns="http://www.w3.org/2000/svg" xmlns:xlink="http://www.w3.org/1999/xlink" width="466.158" height="320.684" viewBox="0 0 466.158 320.684">
  <defs>
    <clipPath id="clip-path">
      <rect id="Rectangle_21" data-name="Rectangle 21" width="426.139" height="237.269" fill="#ebeff0"/>
    </clipPath>
  </defs>
  <g id="Groupe_263" data-name="Groupe 263" transform="matrix(-0.978, 0.208, -0.208, -0.978, 1427.521, 1219.789)">
    <g id="Groupe_77" data-name="Groupe 77" transform="translate(735 1166)">
      <g id="Groupe_76" data-name="Groupe 76" transform="translate(0 0)" clip-path="url(#clip-path)">
        <path id="Tracé_47" data-name="Tracé 47" d="M418.641,202.242C390.43,169.381,350,157.525,311.4,153.114c-9.965-1.138-19.964-1.813-29.97-2.218-12.356-.5-24.754-.675-37.083.583-11.062,1.129-23.125,2.9-33.013,9.191-8.326,5.3-16.007,15.978-14.043,27.756a20.305,20.305,0,0,0,16.732,16.495c8.823,1.472,17.063-4,22.381-11.911,11.966-17.786,8.9-42.468-.84-60.507-24.345-45.1-75.326-44.892-115.778-48.526-22.243-2-45.288-5.422-65.212-17.9C38.2,55.832,23.793,39.392,17.748,18.613A74.277,74.277,0,0,1,15.07,3.25c-.317-4.347,5.519-4.322,5.835,0,1.664,22.757,15.336,41.712,31.461,53.488,19.62,14.33,43.269,18.218,65.944,20.325,23.3,2.164,46.977,2.6,69.656,9.87,20.826,6.677,39.983,19.57,51.976,40.954,10.779,19.219,14.4,45.142,3.4,65.365-5.18,9.527-13.456,17.142-23.3,18.472a25.592,25.592,0,0,1-23.607-10.409c-6.74-9.27-6.513-22.023-1.259-32.169,5.77-11.141,16.118-17.137,26.626-20.287,12.247-3.672,25.128-4.786,37.735-5.06,11.72-.256,23.47.23,35.169,1.03,40.763,2.783,83.991,11.271,117.007,41.237a127.742,127.742,0,0,1,11.051,11.381c2.655,3.094-1.47,7.888-4.127,4.794" transform="translate(2.515 25.344)" fill="#ebeff0"/>
        <path id="Tracé_48" data-name="Tracé 48" d="M.369,177.228q2.6-6.063,5.359-11.979,1.379-2.957,2.8-5.871c.957-1.967,1.814-4.139,3.544-4.6,1.631-.437,2.994,1.117,4.3,2.328l4.17,3.869,8.53,7.913c2.478,2.3.2,8.166-2.293,5.854l-7.2-6.683q-1.9-1.759-3.79-3.517c-.313-.29-3.394-2.83-3.351-3.1-.017.108.777-.386.8-.239.012.068-.451.9-.529,1.064q-.646,1.322-1.284,2.655-1.212,2.53-2.395,5.091Q6.6,175.272,4.291,180.65c-1.573,3.661-5.506.266-3.922-3.422" transform="translate(5.664 -142.951)" fill="#ebeff0"/>
      </g>
    </g>
  </g>
</svg>
