<svg xmlns="http://www.w3.org/2000/svg" xmlns:xlink="http://www.w3.org/1999/xlink" width="1266.307" height="1269.542" viewBox="0 0 1266.307 1269.542">
  <defs>
    <clipPath id="clip-path">
      <rect id="Rectangle_20" data-name="Rectangle 20" width="925.224" height="915.058" transform="translate(0 -87.843)"/>
    </clipPath>
  </defs>
  <g id="Groupe_238" data-name="Groupe 238" transform="translate(337.693 180.225) rotate(58)">
    <g id="Groupe_74" data-name="Groupe 74" transform="translate(79.435 -379.378)" clip-path="url(#clip-path)">
      <path id="Tracé_20" data-name="Tracé 20" d="M55.8.662C21.632,7.478-8.784,51.856,2.331,78.538,6.272,88,14.456,92.892,19.767,95.973c39.1,22.684,91.036-8.387,112.745-27.9,10.645-9.568,15.157-17.378,15.11-25.571-.068-11.256-8.722-19.414-12.786-23.247C121.276,6.479,103.714,4.182,83.693,1.825,69.557.161,62.488-.673,55.8.662" transform="matrix(0.921, 0.391, -0.391, 0.921, 205.634, 32.54)"/>
      <path id="Tracé_546" data-name="Tracé 546" d="M139.141,16.1C104.975,22.918,74.559,67.3,85.674,93.978c3.941,9.458,12.125,14.353,17.436,17.434,39.1,22.684,91.036-8.387,112.745-27.9,10.645-9.568,15.157-17.378,15.11-25.571-.068-11.256-8.722-19.414-12.786-23.247-13.56-12.78-31.122-15.077-51.142-17.434-14.137-1.664-21.206-2.5-27.9-1.162" transform="translate(-48.983 12.978)"/>
      <path id="Tracé_21" data-name="Tracé 21" d="M201.493,25.546c-5.8,5.9-4.766,16.567-1.162,23.247,8.041,14.907,30.552,13.046,33.706,12.786,5-.414,17.239-1.426,19.76-8.137,3.3-8.789-11.4-23.8-26.733-29.058-4.647-1.594-18.277-6.267-25.571,1.162" transform="translate(147.571 67.996)"/>
      <path id="Tracé_22" data-name="Tracé 22" d="M56.862,42.306c-4.044-1.061-17.522-3.81-27.9,4.649-2.354,1.921-8.018,6.54-8.137,12.786C20.6,71.951,41.679,84.271,60.349,82.987c1.407-.1,20.161-1.587,23.247-11.623,3.181-10.344-11.711-25.115-26.733-29.058" transform="translate(99.33 88.221)"/>
      <path id="Tracé_23" data-name="Tracé 23" d="M324.689.912c-29.1,3.981-65.962,23.277-65.089,45.33.741,18.733,28.366,30.73,32.544,32.546,38.088,16.541,87.787-1.01,104.608-31.384,2.78-5.021,6.171-11.346,4.65-18.6C397.088,8.247,356.692-3.465,324.689.912" transform="translate(194.072 51.949)"/>
      <path id="Tracé_24" data-name="Tracé 24" d="M453.342,98.3c-17.855-7.391-42.649-.814-45.33,10.461-1.954,8.216,8.3,16.936,11.623,19.759,10.987,9.343,30.458,16.026,43.006,6.975.493-.357,9.933-7.382,9.3-17.436-.783-12.385-16.194-18.764-18.6-19.759" transform="translate(264.798 103.962)"/>
      <path id="Tracé_25" data-name="Tracé 25" d="M361.084,177.15c-17.412-5.162-41.291-2.01-44.168,8.137-2.548,8.988,12.361,20.045,15.11,22.083,10.246,7.6,30.97,16.879,43.006,6.975,5.926-4.876,9.5-14.2,6.975-22.085-3.151-9.841-14.437-13.188-20.923-15.11" transform="translate(236.716 182.563)"/>
      <path id="Tracé_547" data-name="Tracé 547" d="M361.084,177.15c-17.412-5.162-41.291-2.01-44.168,8.137-2.548,8.988,12.361,20.045,15.11,22.083,10.246,7.6,30.97,16.879,43.006,6.975,5.926-4.876,9.5-14.2,6.975-22.085-3.151-9.841-14.437-13.188-20.923-15.11" transform="translate(-59.03 -166.469)"/>
      <path id="Tracé_26" data-name="Tracé 26" d="M380.727,103.841c-26.314,5.269-46.167,51.672-33.706,86.011,5.692,15.688,16.637,24.75,23.245,30.22,4.173,3.455,38.568,31.22,63.928,17.434,9.886-5.372,17.513-16.58,18.6-27.9.481-5.019-.468-8.574-5.037-20.921a548.886,548.886,0,0,0-23.245-54.241c-7.705-15.858-9.673-19.065-13.948-22.471-7.9-6.3-19.748-10.157-29.834-8.137" transform="translate(256.59 129.179)"/>
      <path id="Tracé_27" data-name="Tracé 27" d="M49.453.124C40.023-1.15,5.749,7.3.635,30.344-2.4,44.015,6.255,56.406,9.16,60.564c0,0,24.021,34.4,105.382,27.121a22.339,22.339,0,0,0,5.715-1.356,23.977,23.977,0,0,0,9.881-8.427c6.415-9.785-1.229-26.955-2.326-29.348,0,0-12.73-27.78-59.568-43.878-5.657-1.943-11.332-3.2-11.332-3.2S52.84.582,49.453.124" transform="translate(712.338 380.836) rotate(70)"/>
      <path id="Tracé_28" data-name="Tracé 28" d="M427.387,257.514a66.513,66.513,0,0,0-37.969,31.77c-1.83,3.46-2.62,5.837-2.324,8.523,1.089,9.921,16.167,16.81,26.346,18.6,24.191,4.247,55.249-14.262,55.791-34.87.234-8.89-5.2-18.42-13.172-23.247-9.663-5.851-20.169-3.044-28.672-.774" transform="translate(307.588 -219.785)"/>
      <path id="Tracé_29" data-name="Tracé 29" d="M408.1,303.609c-11.949,4.759-18.719,17.7-31.77,43.393a67.325,67.325,0,0,0-5.423,13.172c-1.893,6.723-4.46,15.854-.776,25.571.745,1.964,3.612,9.526,10.848,13.948,4.764,2.912,11.751,4.663,32.546-.774,8.523-2.23,17.518-5.182,42.618-16.272,23-10.163,28.715-13.546,34.87-18.6,8.666-7.111,16.546-13.579,17.046-23.245.669-12.922-12.315-22.618-16.272-25.571-7.466-5.575-15.825-7.333-32.544-10.849-20.919-4.4-33.32-3.46-37.195-3.1-7.066.661-10.6.991-13.948,2.324" transform="translate(356.866 -206.259)"/>
      <path id="Tracé_30" data-name="Tracé 30" d="M259.354,56.175c-5.659.689-23.083,2.807-25.571,11.623-1.227,4.35,1.639,8.7,3.1,10.847,13.537,19.94,27.312,33.925,33.318,41.843,7.524,9.916,9.923,26.241,14.724,58.891,4.074,27.71,2.359,38.378,11.622,54.241a75.081,75.081,0,0,0,20.148,22.471c4.949,3.647,28.3,20.858,54.241,13.948,25.038-6.669,36.768-31.627,43.394-45.718,8.308-17.677,3.485-19.493,10.847-37.195,13.425-32.272,40.178-51.99,52.691-61.214,22.822-16.821,31.985-15.772,44.944-32.544,6.022-7.8,18.57-24.037,13.948-38.745-6.2-19.713-40.423-27.717-65.865-24.021-17.8,2.588-21.6,9.495-52.691,24.021-30.823,14.4-46.235,21.6-61.992,22.471-39.439,2.178-55.1-26-96.859-20.921" transform="translate(174.559 74.174)"/>
      <path id="Tracé_31" data-name="Tracé 31" d="M48.025,102.9C9.481,124.14-6.354,183.69,2.307,229.985c4.415,23.593,15.6,41.041,37.969,75.938,18.714,29.191,35.952,48.442,49.592,63.538,34.091,37.731,51.709,56.764,79.812,65.09,11,3.259,34.416,10.2,54.241-1.55,19.11-11.319,26.754-35.183,27.9-38.743,3.385-10.568,3.555-19.383,10.849-40.293,3.417-9.8,6.526-16.879,10.848-17.048,3.261-.128,6.361,3.712,7.749,6.975,3.385,7.953-2.6,14.371-4.649,24.8-3.029,15.376,4.574,28.881,6.2,31.77,11.429,20.307,35.769,24.746,40.293,25.571,20,3.647,36.38-3.228,52.691-10.073,25.833-10.842,27.922-19.8,50.367-24.8,11.188-2.489,24.764-5.3,37.195,2.326,8.915,5.467,17.586,16.512,17.048,28.67-.806,18.126-21.658,29.189-29.446,33.318-18.806,9.977-25.519,3.93-63.54,15.5-14.975,4.556-25.035,8.871-32.544,18.6-2.737,3.542-7.828,10.136-8.525,19.371-.741,9.839,4.013,15.931,23.247,50.368,4.65,8.326,7.545,13.68,5.425,18.6-.968,2.246-3.275,5.079-18.6,10.073-9.972,3.251-15.4,5.019-24.023,6.2-6.583.9-22.763,2.515-44.168-2.324-23.266-5.26-22.628-11.346-44.942-16.272-11.249-2.485-24.718-5.309-41.069-1.55-7.91,1.818-27.772,6.382-38.743,24.021-7.583,12.19-7.235,24.7-6.975,34.094.142,5.077.645,23.128,10.849,38.743,17.52,26.812,53,30.16,78.262,32.546,25.246,2.382,45.929,4.334,65.09-7.749,14.678-9.257,18.689-20.589,42.618-34.094,6.234-3.52,14.131-7.976,24.8-10.849,20.237-5.449,34.591-.923,55.017,2.324,40.971,6.517,61.457,9.774,82.137.776,7.84-3.411,28.892-14.254,53.467-24.021,3.473-1.381,9.376-3.635,15.5-1.55,7.765,2.644,9.633,10.143,17.822,21.7,4.491,6.333,10.57,14.911,18.6,20.147,16.169,10.545,36.866,5.33,45.718,3.1,9.325-2.349,29.647-7.469,41.068-26.345,2.857-4.72,13.091-21.634,5.424-37.193-6.7-13.586-27.611-15.867-42.617-17.822-8.733-1.138-15.986-.938-31-3.874-14.961-2.927-17.737-5.077-19.372-6.975-6.143-7.128-3.352-18.984,1.55-35.643,8.457-28.733,13.7-39.489,17.822-52.693a179.372,179.372,0,0,0,6.2-72.838,164.868,164.868,0,0,0-18.6-58.891c-5.21-9.374-16.587-29.334-39.519-45.718C574.011,305.7,557.56,293.946,539.3,297.4c-11.732,2.218-13.331,8.653-31.77,20.923-13.589,9.042-30.888,20.552-51.141,22.471-12.139,1.15-13.583-2.26-65.09-17.822-35.921-10.853-39.909-10.612-43.394-10.073-9.608,1.484-31.291,7.686-49.592,13.948-3.869,1.325-10.386,3.609-13.172.776-.879-.895-3.347-4.289,3.1-17.822,12.268-25.76,34.094-41.069,34.094-41.069,46.648-32.716,69.971-49.073,89.886-68.965C433.007,179,447.96,163.616,449.41,140.1c1.515-24.559-12.342-47.49-28.67-60.442-22.3-17.684-49.04-16.639-78.262-15.5-15.877.62-27.766,3.023-51.142,7.747-32.861,6.643-35.265,9.956-57.341,13.948-19.981,3.614-38.633,3.7-75.938,3.874-37.195.175-47.341-1.746-70.513,2.324C68.3,95.437,58.43,97.171,48.025,102.9" transform="translate(0 99.508)"/>
      <path id="Tracé_32" data-name="Tracé 32" d="M191.48,285.856c-19.972-5.888-49.685-2.12-55.015,13.948-3.293,9.923,4.191,20.082,5.423,21.7,12.218,16,39.563,16.716,55.791,5.423,7.115-4.949,17.6-16.042,14.722-26.345-2.607-9.324-14.739-12.9-20.921-14.722" transform="translate(101.404 263.701)"/>
      <path id="Tracé_34" data-name="Tracé 34" d="M209.464,278.582c-1.484-.135-10.161-.921-12.4,3.875-1.641,3.518,1.148,7.973,3.1,10.073,4.519,4.869,13.324,6.561,18.6,2.324,2.146-1.725,4.53-5.091,3.874-8.523-1.251-6.538-12.457-7.684-13.174-7.749" transform="translate(146.961 260.127)"/>
      <path id="Tracé_35" data-name="Tracé 35" d="M222.455,196.547c-5.647-.718-12.69,2.209-13.175,6.2-.5,4.126,6.2,7.9,10.075,9.3,5.966,2.151,14.682,2.08,16.272-1.55,1.762-4.02-4.995-12.906-13.172-13.948" transform="translate(156.443 198.811)"/>
      <path id="Tracé_36" data-name="Tracé 36" d="M264.074,153.663c16.366,1.113,27.354,6.961,43.393,15.5,20.456,10.886,33.135,17.875,37.195,31.77.587,2.01,3.572,12.235-1.55,20.921-2.351,3.985-5.655,6.372-14.724,10.849-15.51,7.656-23.266,11.485-33.318,13.172a78.031,78.031,0,0,1-34.87-1.55c-9.119-2.572-24.462-6.9-34.869-21.7-1.613-2.291-13-18.871-8.525-39.519.949-4.373,2.971-13.7,10.849-20.923,11.166-10.243,26.394-9.206,36.419-8.523" transform="translate(161.315 166.531)"/>
      <path id="Tracé_37" data-name="Tracé 37" d="M84.694,308.756c-15.354,7.321-20.376,22.695-28.168,46.538-2.215,6.781-3.832,13.729-.612,20.206a20.8,20.8,0,0,0,9.8,9.185c5.048,2.353,10.4,2.428,18.984.612,10.692-2.262,14.676-4.98,29.391-11.021,15.588-6.4,19.028-6.6,29.391-12.247,13.37-7.286,16.082-11.554,17.146-13.472,3.622-6.524,5.048-16.241.613-23.881-3.07-5.288-7.757-7.534-15.309-11.022a79.679,79.679,0,0,0-24.494-6.735c-16.459-1.933-26.388-3.1-36.739,1.837" transform="translate(735.873 -314.344)"/>
      <path id="Tracé_38" data-name="Tracé 38" d="M29.662,339.463c-5.091,4.549,1.134,18.465,1.55,19.372a27.579,27.579,0,0,0,11.623,13.172c.7.388,12.195,6.613,17.046,2.324,4.942-4.366,1.312-18.149-6.2-26.345-6.984-7.62-19.388-12.661-24.021-8.523" transform="translate(815.351 -269.16)"/>
      <path id="Tracé_39" data-name="Tracé 39" d="M164.921,329.395c-5.061,2.56-12.847,8.743-12.4,16.272.384,6.454,6.627,10.673,11.623,13.948,13.581,8.906,38.28,16.809,45.718,6.975,5.25-6.943.112-20.37-6.2-27.9-9.437-11.255-26.627-15.428-38.743-9.3" transform="translate(114.016 296.1)"/>
      <path id="Tracé_40" data-name="Tracé 40" d="M350.368,311.37c-1.108-.1-17.455-1.271-25.571,10.073-5.8,8.1-3.738,17.476-.774,31,1.907,8.694,5.348,23.411,17.822,32.544,3.326,2.434,8.359,6.118,13.172,4.649,5.442-1.66,6.613-8.687,10.849-21.7,8.736-26.83,13.728-27.565,11.623-35.645-2.833-10.87-14.549-19.829-27.121-20.921" transform="translate(240.068 284.679)"/>
      <path id="Tracé_41" data-name="Tracé 41" d="M151.139,138.244c-26.758,11.466-38.561,35.234-41.843,41.843-9.629,19.39-9.207,36-8.523,62.764.907,35.643,9.96,48.007,12.4,51.142,3.345,4.3,13.083,16.833,26.345,16.272,12.045-.51,20.161-11.527,24.8-17.822,10.346-14.049,6.106-20.019,14.722-37.969,7.067-14.724,10.48-11.875,29.446-39.519,12.826-18.694,16.207-27.2,17.822-31.77,4.741-13.413,8.4-23.755,4.649-32.544-8.226-19.28-49.638-25.328-79.812-12.4" transform="translate(75.107 150.179)"/>
      <path id="Tracé_42" data-name="Tracé 42" d="M149.268,146.674c-16.723,5.86-29.164,23.125-28.67,40.293.1,3.485.425,14.757,8.523,20.923,11.106,8.453,28,.573,32.544-1.55,1.36-.634,26.718-12.925,27.121-35.645.045-2.534.243-13.649-7.749-20.921-11.291-10.276-29.18-4.007-31.77-3.1" transform="translate(90.152 159.572)"/>
      <path id="Tracé_43" data-name="Tracé 43" d="M124.408,192.609c-11.786,4.546-13.817,19.82-13.948,20.921-.14,1.183-1.805,17.5,10.073,24.8,8.49,5.215,17.829,2.1,19.372,1.55,10.615-3.757,19.243-15.564,17.046-27.9-2.674-15.014-20.206-24.133-32.544-19.372" transform="translate(82.466 195)"/>
      <path id="Tracé_44" data-name="Tracé 44" d="M48.269,298.206C65.717,322.9,70.3,326.255,73.84,328.426c4.937,3.029,21.838,13.392,35.645,6.2,10.564-5.5,13.418-18.217,14.722-24.021,4.872-21.692-6.538-40.033-10.073-45.718-4.49-7.218-17.445-28.042-41.069-30.994-3.212-.4-19.559-2.088-33.318,8.523-4.056,3.128-9.731,7.5-11.623,14.722-1.6,6.1-.047,12.488,20.147,41.069" transform="translate(20.676 226.556)"/>
      <path id="Tracé_45" data-name="Tracé 45" d="M316.759,83.893c-16.891,7.445-22.59,25.064-25.573,34.288a64.943,64.943,0,0,0-1.742,33.126c1.326,7.2,3,15.589,9.879,19.759,3.612,2.188,9.458,3.7,12.787,1.162.917-.7,1.755-1.791,3.486-9.879,1.763-8.242,1.358-9.266,2.323-11.623,2.3-5.592,7.752-7.513,13.369-10.461,4.6-2.413,22.155-12.263,28.474-27.314,1.227-2.915,5.364-12.765,1.162-20.921-6.367-12.373-28.85-14.888-44.166-8.137" transform="translate(215.37 111.932)"/>
      <path id="Tracé_46" data-name="Tracé 46" d="M308.959,91.7c-7.9,3.411-12.669,11.758-12.786,19.759-.017,1.162-.033,12.067,6.975,15.692,7.539,3.9,17.289-3.693,21.5-6.973,4.046-3.151,13.892-10.818,12.2-18.6-1.826-8.415-16.658-14.731-27.9-9.879" transform="translate(221.426 119.24)"/>
    </g>
  </g>
</svg>
