<svg xmlns="http://www.w3.org/2000/svg" width="322.824" height="383.492" viewBox="0 0 322.824 383.492">
  <g id="Groupe_286" data-name="Groupe 286" transform="translate(-1545.643 -2453.034) rotate(-30)">
    <path id="Tracé_81" data-name="Tracé 81" d="M309.114.694C286.977,3.723,258.932,18.4,259.6,35.179c.564,14.251,21.58,23.378,24.758,24.76,28.976,12.584,66.785-.768,79.582-23.876,2.115-3.82,4.695-8.631,3.538-14.148C364.192,6.274,333.46-2.636,309.114.694" transform="translate(-224.884 3051.762)"/>
    <path id="Tracé_82" data-name="Tracé 82" d="M442.439,97.55c-13.584-5.623-32.446-.62-34.485,7.959-1.486,6.25,6.317,12.884,8.843,15.032,8.359,7.108,23.171,12.192,32.717,5.306.375-.271,7.557-5.616,7.073-13.265-.6-9.422-12.319-14.275-14.147-15.032" transform="translate(-189.999 3088.56)"/>
    <path id="Tracé_533" data-name="Tracé 533" d="M435.591,97.079c-10.9-4.512-26.038-.5-27.675,6.387-1.193,5.016,5.069,10.34,7.1,12.063,6.708,5.7,18.595,9.784,26.256,4.258.3-.218,6.064-4.507,5.676-10.645-.478-7.561-9.886-11.456-11.353-12.063" transform="translate(642.075 2897.202) rotate(142)"/>
    <path id="Tracé_534" data-name="Tracé 534" d="M429.9,96.688c-8.67-3.589-20.708-.4-22.01,5.08-.949,3.989,4.032,8.223,5.644,9.594,5.335,4.536,14.789,7.781,20.882,3.387.239-.173,4.823-3.584,4.514-8.466-.38-6.014-7.863-9.111-9.03-9.594" transform="translate(608.2 2994.725) rotate(142)"/>
    <path id="Tracé_84" data-name="Tracé 84" d="M371.751,103.712c-20.019,4.009-35.122,39.31-25.643,65.434,4.33,11.935,12.657,18.829,17.684,22.99,3.175,2.628,29.341,23.751,48.634,13.263a28.351,28.351,0,0,0,14.148-21.222c.366-3.818-.356-6.523-3.832-15.916A417.578,417.578,0,0,0,405.058,127c-5.862-12.064-7.359-14.5-10.611-17.1-6.009-4.792-15.024-7.727-22.7-6.19" transform="translate(-179.38 3100.335)"/>
    <path id="Tracé_79" data-name="Tracé 79" d="M253.165,49.848c-4.305.524-17.56,2.135-19.454,8.843-.933,3.309,1.247,6.617,2.359,8.252,10.3,15.17,20.778,25.809,25.347,31.833,5.724,7.544,7.549,19.963,11.2,44.8,3.1,21.081,1.795,29.2,8.841,41.265a57.119,57.119,0,0,0,15.328,17.1c3.765,2.775,21.532,15.868,41.265,10.611,19.048-5.073,27.972-24.06,33.012-34.78,6.321-13.448,2.651-14.83,8.252-28.3,10.214-24.551,30.566-39.552,40.085-46.569,17.362-12.8,24.333-12,34.191-24.758,4.582-5.931,14.128-18.286,10.611-29.476-4.713-15-30.752-21.086-50.107-18.274-13.544,1.969-16.432,7.223-40.085,18.274-23.449,10.957-35.174,16.434-47.161,17.1-30,1.657-41.92-19.777-73.686-15.916" transform="translate(-233.484 3061.559)"/>
    <path id="Tracé_83" data-name="Tracé 83" d="M309.9,83.017c-12.85,5.664-17.185,19.068-19.455,26.085a49.407,49.407,0,0,0-1.326,25.2c1.009,5.479,2.281,11.859,7.516,15.032,2.748,1.665,7.2,2.815,9.728.884.7-.532,1.335-1.363,2.652-7.516,1.342-6.27,1.033-7.049,1.767-8.843,1.747-4.254,5.9-5.716,10.171-7.959,3.5-1.836,16.854-9.329,21.662-20.779.933-2.218,4.08-9.711.884-15.916-4.844-9.413-21.948-11.326-33.6-6.19" transform="translate(-215.496 3078.201)" fill="#ebeff0"/>
    <path id="Tracé_85" data-name="Tracé 85" d="M305.9,91.291a16.843,16.843,0,0,0-9.727,15.032c-.013.884-.025,9.18,5.306,11.938,5.736,2.966,13.153-2.809,16.358-5.3,3.078-2.4,10.568-8.23,9.284-14.149-1.389-6.4-12.673-11.207-21.222-7.516" transform="translate(-212.827 3081.422)"/>
    <path id="Tracé_93" data-name="Tracé 93" d="M403.759,303.319c-10.646,4.24-16.678,15.772-28.307,38.663a59.984,59.984,0,0,0-4.832,11.736c-1.686,5.99-3.974,14.126-.691,22.783.663,1.75,3.219,8.488,9.665,12.427,4.245,2.594,10.47,4.154,29-.69,7.594-1.987,15.608-4.617,37.971-14.5,20.49-9.055,25.585-12.069,31.069-16.571,7.722-6.336,14.743-12.1,15.188-20.711.6-11.513-10.973-20.152-14.5-22.784-6.652-4.967-14.1-6.534-29-9.667-18.638-3.919-29.688-3.083-33.14-2.761-6.3.589-9.444.883-12.427,2.071" transform="translate(-225.191 2686.103)"/>
  </g>
</svg>
